<svg id="Warstwa_1" data-name="Warstwa 1" xmlns="http://www.w3.org/2000/svg" viewBox="0 0 163.03 77.72"><defs><style>.cls-1{fill:#b33281;}.cls-2{fill:#cb378c;}.cls-3{fill:#732057;}.cls-4{fill:#972d6e;}.cls-5,.cls-6{font-size:38.3px;font-family:Hey-August, Hey August;}.cls-5{fill:#1d1d1b;}.cls-6{fill:#fff;}</style></defs><path class="cls-1" d="M98.53,90.22c8.75,5.81,24.37-3.65,32.27-11.55,3.38-3.38,13-14.18,12.87-30.15-.11-9.84-4-28.55-17.23-31.74-8.15-2-18.83,2.21-21.83,9.38-3.75,9,7.67,14.87,5.37,26.61C107.52,65.34,92.71,67.4,92.84,79,92.9,83.27,95,87.88,98.53,90.22Z" transform="translate(-29.07 -15.63)"/><path class="cls-2" d="M94.72,90.22C103.48,96,119.09,86.57,127,78.67c3.38-3.38,13-14.18,12.87-30.15-.1-9.84-4-28.55-17.23-31.74-8.14-2-18.83,2.21-21.83,9.38-3.74,9,7.68,14.87,5.38,26.61C103.72,65.34,88.9,67.4,89,79,89.09,83.27,91.21,87.88,94.72,90.22Z" transform="translate(-29.07 -15.63)"/><path class="cls-3" d="M118.09,17.58c-9.22-5-24,5.74-31.15,14.3C83.87,35.54,75.17,47.14,76.73,63c1,9.79,6.47,28.1,19.91,30.13,8.29,1.25,18.57-3.83,20.94-11.24,3-9.23-8.94-14.14-7.66-26,1.36-12.73,16-16.07,14.81-27.57C124.3,24,121.8,19.61,118.09,17.58Z" transform="translate(-29.07 -15.63)"/><path class="cls-4" d="M115,16.92c-9.23-5-24,5.74-31.15,14.3-3.08,3.66-11.77,15.25-10.22,31.15,1,9.79,6.48,28.09,19.92,30.12,8.28,1.26,18.56-3.82,20.94-11.23,3-9.24-8.94-14.15-7.66-26,1.36-12.73,15.94-16.07,14.8-27.58C121.2,23.36,118.69,18.94,115,16.92Z" transform="translate(-29.07 -15.63)"/><text class="cls-5" transform="translate(2.23 53.74)">{Pink Bean}</text><text class="cls-6" transform="translate(0 54.01)">{Pink Bean}</text></svg>