<svg id="Warstwa_1" data-name="Warstwa 1" xmlns="http://www.w3.org/2000/svg" viewBox="0 0 70.23 77.72"><defs><style>.cls-1{fill:#b33281;}.cls-2{fill:#cb378c;}.cls-3{fill:#732057;}.cls-4{fill:#972d6e;}</style></defs><path class="cls-1" d="M61.57,99.26c8.76,5.82,24.37-3.64,32.27-11.55,3.38-3.38,13-14.18,12.87-30.15-.1-9.83-4-28.55-17.23-31.74-8.14-2-18.83,2.21-21.83,9.38C63.91,44.15,75.33,50.07,73,61.81,70.57,74.38,55.75,76.44,55.89,88,55.94,92.31,58.05,96.92,61.57,99.26Z" transform="translate(-36.48 -24.67)"/><path class="cls-2" d="M57.77,99.26c8.75,5.82,24.37-3.64,32.27-11.55,3.38-3.38,13-14.18,12.87-30.15-.11-9.83-4-28.55-17.24-31.74-8.14-2-18.82,2.21-21.83,9.38-3.74,8.95,7.68,14.87,5.38,26.61C66.76,74.38,51.94,76.44,52.08,88,52.13,92.31,54.25,96.92,57.77,99.26Z" transform="translate(-36.48 -24.67)"/><path class="cls-3" d="M81.13,26.63c-9.22-5-24,5.74-31.15,14.29-3.07,3.67-11.76,15.26-10.21,31.15,1,9.79,6.47,28.1,19.92,30.13C68,103.46,78.25,98.37,80.62,91c3-9.24-8.93-14.15-7.66-26,1.37-12.73,16-16.06,14.81-27.57C87.35,33.06,84.84,28.65,81.13,26.63Z" transform="translate(-36.48 -24.67)"/><path class="cls-4" d="M78,26c-9.22-5-24,5.74-31.15,14.3-3.07,3.66-11.77,15.25-10.21,31.15.95,9.79,6.47,28.09,19.91,30.13,8.29,1.25,18.57-3.83,20.94-11.24,3-9.24-8.94-14.15-7.66-26,1.36-12.73,16-16.07,14.81-27.58C84.24,32.4,81.74,28,78,26Z" transform="translate(-36.48 -24.67)"/></svg>