<svg id="Warstwa_1" data-name="Warstwa 1" xmlns="http://www.w3.org/2000/svg" viewBox="0 0 96.77 107.09"><defs><style>.cls-1{fill:#b33281;}.cls-2{fill:#cb378c;}.cls-3{fill:#732057;}.cls-4{fill:#972d6e;}.cls-5,.cls-6{font-size:38.3px;font-family:Hey-August, Hey August;}.cls-6{fill:#fff;}</style></defs><path class="cls-1" d="M57.17,115.41c12.06,8,33.58-5,44.46-15.91,4.66-4.66,18-19.54,17.73-41.54-.14-13.55-5.53-39.34-23.74-43.73-11.22-2.71-25.94,3-30.08,12.92C60.38,39.48,76.12,47.64,73,63.82,69.56,81.13,49.14,84,49.33,99.9,49.41,105.83,52.32,112.19,57.17,115.41Z" transform="translate(-22.6 -12.64)"/><path class="cls-2" d="M51.92,115.41c12.06,8,33.58-5,44.47-15.91C101,94.84,114.36,80,114.12,58c-.15-13.55-5.54-39.34-23.74-43.73-11.23-2.71-25.95,3-30.08,12.92-5.16,12.33,10.58,20.49,7.41,36.67C64.31,81.13,43.9,84,44.09,99.9,44.16,105.83,47.08,112.19,51.92,115.41Z" transform="translate(-22.6 -12.64)"/><path class="cls-3" d="M84.12,15.34C71.41,8.4,51.1,23.24,41.2,35,37,40.08,25,56.06,27.13,78c1.31,13.49,8.92,38.71,27.44,41.52C66,121.19,80.15,114.19,83.41,104,87.49,91.26,71.1,84.49,72.86,68.1c1.88-17.54,22-22.13,20.4-38C92.68,24.21,89.23,18.13,84.12,15.34Z" transform="translate(-22.6 -12.64)"/><path class="cls-4" d="M79.84,14.42c-12.71-6.94-33,7.9-42.92,19.7-4.23,5-16.21,21-14.07,42.92,1.32,13.49,8.92,38.71,27.44,41.51,11.42,1.73,25.58-5.27,28.85-15.48,4.07-12.73-12.31-19.49-10.56-35.88,1.89-17.54,22-22.14,20.41-38C88.4,23.29,85,17.21,79.84,14.42Z" transform="translate(-22.6 -12.64)"/><text class="cls-5" transform="translate(15.6 66.67)">{PB}</text><text class="cls-6" transform="translate(12.75 66.94)">{PB}</text></svg>