<svg id="Warstwa_1" data-name="Warstwa 1" xmlns="http://www.w3.org/2000/svg" viewBox="0 0 163.03 77.72"><defs><style>.cls-1{fill:#b33281;}.cls-2{fill:#cb378c;}.cls-3{fill:#732057;}.cls-4{fill:#972d6e;}.cls-5,.cls-6{font-size:38.3px;font-family:Hey-August, Hey August;}.cls-5{fill:#fff;}.cls-6{fill:#1d1d1b;}</style></defs><path class="cls-1" d="M133.41,97.5c8.75,5.81,24.37-3.65,32.27-11.55,3.38-3.38,13-14.18,12.87-30.15-.11-9.84-4-28.55-17.24-31.74-8.14-2-18.82,2.21-21.83,9.38-3.74,9,7.68,14.87,5.38,26.61-2.46,12.57-17.28,14.63-17.14,26.19C127.77,90.55,129.89,95.16,133.41,97.5Z" transform="translate(-63.94 -22.91)"/><path class="cls-2" d="M129.6,97.5c8.75,5.81,24.37-3.65,32.27-11.55,3.38-3.38,13-14.18,12.87-30.15-.1-9.84-4-28.55-17.23-31.74-8.15-2-18.83,2.21-21.83,9.38-3.75,9,7.68,14.87,5.38,26.61-2.47,12.57-17.28,14.63-17.14,26.19C124,90.55,126.08,95.16,129.6,97.5Z" transform="translate(-63.94 -22.91)"/><path class="cls-3" d="M153,24.86c-9.23-5-24,5.74-31.15,14.3-3.08,3.66-11.77,15.26-10.22,31.15,1,9.79,6.48,28.1,19.92,30.13,8.28,1.25,18.56-3.83,20.94-11.23,2.95-9.24-8.94-14.15-7.66-26,1.36-12.73,15.94-16.06,14.8-27.57C159.18,31.3,156.67,26.89,153,24.86Z" transform="translate(-63.94 -22.91)"/><path class="cls-4" d="M149.86,24.2c-9.22-5-24,5.74-31.15,14.3C115.64,42.16,107,53.75,108.5,69.65c1,9.79,6.48,28.09,19.92,30.12C136.7,101,147,96,149.35,88.54c3-9.24-8.93-14.15-7.66-26,1.37-12.73,15.95-16.07,14.81-27.58C156.08,30.64,153.57,26.22,149.86,24.2Z" transform="translate(-63.94 -22.91)"/><text class="cls-5" transform="translate(2.23 53.74)">{Pink Bean}</text><text class="cls-6" transform="translate(0 53.74)">{Pink Bean}</text></svg>